<?xml version="1.0" standalone="no"?>
<!DOCTYPE svg PUBLIC "-//W3C//DTD SVG 20010904//EN"
 "http://www.w3.org/TR/2001/REC-SVG-20010904/DTD/svg10.dtd">
<svg version="1.0" xmlns="http://www.w3.org/2000/svg"
 width="464.000000pt" height="232.000000pt" viewBox="0 0 464.000000 232.000000"
 preserveAspectRatio="xMidYMid meet">

<g transform="translate(0.000000,232.000000) scale(0.100000,-0.100000)"
fill="#000000" stroke="none">
<path d="M580 1520 c0 -60 4 -110 8 -110 14 0 32 23 32 41 0 13 12 20 41 26
33 6 45 15 60 42 16 31 17 37 3 63 -17 33 -49 48 -105 48 l-39 0 0 -110z m108
41 c5 -29 -15 -51 -43 -51 -23 0 -35 17 -35 50 0 43 72 44 78 1z"/>
<path d="M883 1620 c-28 -11 -63 -67 -63 -98 0 -39 29 -83 67 -98 42 -18 81
-11 118 20 23 20 27 31 27 76 0 42 -4 57 -23 76 -27 26 -92 39 -126 24z m101
-62 c21 -30 20 -50 -5 -82 -25 -32 -66 -34 -97 -6 -28 26 -29 79 -3 102 38 33
76 28 105 -14z"/>
<path d="M1130 1605 c0 -13 6 -39 14 -57 8 -18 23 -54 33 -80 10 -27 21 -48
24 -48 3 0 14 19 25 41 23 50 35 52 50 7 11 -32 44 -52 44 -26 0 15 44 125 54
135 10 10 7 53 -3 53 -14 0 -41 -41 -41 -62 0 -41 -48 -30 -57 13 -9 46 -21
44 -45 -6 -25 -52 -38 -53 -51 -4 -15 58 -47 81 -47 34z"/>
<path d="M1506 1614 c-11 -29 -7 -179 6 -192 15 -15 124 -16 134 -1 9 15 -16
29 -41 23 -29 -7 -75 12 -75 31 0 18 20 28 59 29 42 2 33 30 -11 34 -73 6 -56
64 18 61 46 -3 60 3 49 20 -3 6 -35 11 -70 11 -48 0 -64 -4 -69 -16z"/>
<path d="M1808 1624 c-10 -9 -11 -198 -1 -207 10 -10 33 13 33 33 0 33 30 31
66 -5 19 -19 39 -35 44 -35 13 0 13 27 0 35 -15 9 -12 51 5 65 21 17 19 63 -4
91 -14 18 -31 23 -77 27 -32 2 -62 0 -66 -4z m110 -46 c18 -18 15 -43 -8 -63
-39 -35 -91 3 -75 55 7 23 63 28 83 8z"/>
<path d="M2094 1617 c-3 -8 -3 -56 -2 -108 l3 -94 65 -3 c62 -2 102 9 87 24
-4 4 -26 8 -49 9 -66 3 -68 3 -68 30 0 14 6 25 13 26 88 5 105 26 30 38 -26 4
-39 12 -41 25 -5 26 15 36 71 36 46 0 62 12 31 24 -31 12 -134 7 -140 -7z"/>
<path d="M2394 1617 c-3 -8 -3 -56 -2 -108 l3 -94 29 -3 c75 -9 138 29 151 90
9 40 -21 98 -61 114 -43 18 -113 18 -120 1z m112 -40 c46 -40 34 -106 -23
-128 -43 -16 -53 -3 -53 71 0 67 5 77 37 79 7 1 24 -10 39 -22z"/>
<path d="M2873 1624 c-9 -4 -13 -35 -13 -105 0 -97 0 -99 26 -105 38 -10 124
1 140 18 12 12 14 30 8 86 -9 95 -17 105 -90 109 -33 1 -65 0 -71 -3z m105
-33 c8 -5 12 -17 10 -27 -2 -14 -13 -20 -46 -22 -39 -3 -42 -1 -42 21 0 13 3
27 7 30 9 10 55 8 71 -2z m6 -87 c26 -10 20 -53 -9 -60 -42 -10 -75 3 -75 30
0 32 41 46 84 30z"/>
<path d="M3146 1622 c-2 -4 13 -36 35 -69 21 -34 39 -75 39 -90 0 -38 14 -60
26 -42 5 8 9 26 10 41 1 16 18 55 38 89 20 33 36 65 36 70 0 25 -36 -1 -67
-47 -15 -24 -43 -33 -43 -15 0 13 -50 71 -60 71 -5 0 -11 -4 -14 -8z"/>
<path d="M602 1247 c-22 -23 -22 -26 -22 -368 l0 -346 23 -11 c30 -15 20 -15
280 -13 213 1 228 2 247 21 19 19 20 33 20 353 -1 321 -1 333 -21 357 l-21 25
-242 3 -242 3 -22 -24z m318 -173 c6 -14 10 -103 10 -199 0 -144 -3 -176 -16
-189 -18 -18 -66 -21 -95 -6 -18 10 -19 23 -19 203 0 137 3 196 12 205 7 7 31
12 55 12 37 0 45 -4 53 -26z"/>
<path d="M1227 1263 c-11 -10 -8 -741 3 -748 5 -3 103 -6 217 -6 l208 -1 78
81 77 80 0 219 0 218 -80 82 -81 82 -208 0 c-114 0 -211 -3 -214 -7z m343
-182 c13 -25 14 -388 1 -396 -17 -10 -75 -13 -98 -4 -23 8 -23 10 -23 202 0
137 3 196 12 205 7 7 31 12 55 12 32 0 45 -5 53 -19z"/>
<path d="M1878 1263 c-17 -4 -18 -30 -18 -366 0 -199 4 -367 8 -374 6 -9 62
-13 205 -13 108 -1 201 1 207 5 5 3 10 35 10 70 l0 64 -132 3 -133 3 -3 301
-2 302 -23 6 c-25 6 -93 6 -119 -1z"/>
<path d="M2518 1259 c-12 -6 -18 -22 -18 -44 0 -18 -5 -46 -10 -61 -6 -15 -15
-52 -20 -83 -5 -31 -16 -87 -25 -126 -8 -38 -22 -104 -31 -145 -8 -41 -22
-106 -31 -145 -8 -38 -17 -86 -20 -107 l-5 -36 59 -4 c66 -5 77 3 93 63 11 41
24 49 79 49 48 0 81 -24 81 -58 0 -43 11 -50 75 -53 l60 -3 3 34 c2 18 -2 54
-9 79 -6 25 -15 66 -19 91 -4 25 -12 65 -18 90 -6 25 -19 81 -28 125 -9 44
-22 107 -29 140 -7 33 -19 85 -25 115 -21 96 -15 90 -83 90 -34 0 -70 -5 -79
-11z m101 -394 c5 -43 7 -83 5 -87 -3 -4 -21 -8 -41 -8 l-35 0 4 58 c5 65 34
140 48 126 5 -5 13 -45 19 -89z"/>
<path d="M2885 1257 c-3 -6 -4 -176 -3 -377 l3 -365 188 -3 187 -2 50 46 50
47 0 126 c0 79 -4 131 -11 138 -8 8 -8 17 0 31 6 12 11 74 11 144 l0 124 -53
52 -53 52 -182 0 c-137 0 -184 -3 -187 -13z m323 -149 c7 -7 12 -38 12 -70 0
-70 -11 -78 -104 -78 -75 0 -86 10 -86 80 0 71 10 80 93 80 44 0 78 -5 85 -12z
m10 -368 c2 -52 0 -67 -14 -77 -23 -17 -146 -17 -162 -1 -13 13 -17 105 -6
133 5 13 21 15 93 13 l86 -3 3 -65z"/>
<path d="M3482 1217 l-52 -53 0 -125 0 -125 53 -51 52 -52 110 -3 110 -3 3
-63 c4 -85 -3 -92 -92 -92 -75 0 -96 9 -96 42 0 17 -7 19 -67 16 l-68 -3 -3
-48 c-3 -47 -1 -51 46 -98 l49 -49 138 0 138 0 48 49 49 48 0 127 0 127 -50
49 -49 50 -104 0 c-67 0 -107 4 -115 12 -16 16 -16 120 0 136 7 7 42 12 85 12
69 0 74 -2 85 -25 10 -23 16 -25 80 -25 l68 0 0 47 c0 42 -4 50 -53 100 l-54
53 -129 0 -130 0 -52 -53z"/>
</g>
</svg>
